<svg width="40" height="40" viewBox="0 0 40 40" fill="none" xmlns="http://www.w3.org/2000/svg">
<circle cx="20" cy="20" r="20" fill="white"/>
<g clip-path="url(#clip0)">
<path d="M18.358 8.70331L16.1487 8.12728C15.6768 8.00156 15.1848 7.97007 14.7008 8.03462C14.2167 8.09917 13.7502 8.25849 13.3277 8.50346C12.9053 8.74844 12.5353 9.07427 12.2389 9.46233C11.9424 9.8504 11.7254 10.2931 11.6002 10.7651L11.0487 12.8479C12.8672 10.5846 15.4821 9.10185 18.358 8.70331Z" fill="black"/>
<path d="M8.66735 21.8141L8.12645 23.8548C7.8736 24.8073 8.00946 25.8212 8.50413 26.6736C8.9988 27.5259 9.81177 28.1469 10.7642 28.3998L12.8717 28.9618C10.6214 27.1926 9.12028 24.6405 8.66735 21.8141Z" fill="black"/>
<path d="M29.2358 11.6002L26.8719 10.9715C28.0664 11.8903 29.0665 13.0371 29.8141 14.3455C30.5618 15.6539 31.0421 17.0978 31.2273 18.5933L31.8771 16.1346C32.1266 15.1831 31.9887 14.1715 31.4936 13.3215C30.9985 12.4715 30.1865 11.8525 29.2358 11.6002Z" fill="black"/>
<path d="M21.5894 31.2729L23.8548 31.8841C24.8073 32.1369 25.8212 32.0011 26.6736 31.5064C27.5259 31.0117 28.1469 30.1988 28.3998 29.2463L29.0391 26.8438C27.2367 29.2445 24.5593 30.8362 21.5894 31.2729Z" fill="black"/>
<path d="M20.0018 9.59462C17.9433 9.59393 15.9308 10.2037 14.2189 11.3468C12.507 12.49 11.1725 14.1151 10.3843 16.0167C9.59607 17.9183 9.38948 20.0109 9.79064 22.0299C10.1918 24.049 11.1827 25.9037 12.638 27.3595C14.0934 28.8153 15.9477 29.8068 17.9666 30.2087C19.9855 30.6105 22.0782 30.4046 23.9801 29.617C25.8819 28.8295 27.5075 27.4955 28.6512 25.784C29.7949 24.0725 30.4054 22.0603 30.4054 20.0018C30.4054 17.2422 29.3094 14.5957 27.3584 12.644C25.4075 10.6924 22.7613 9.59555 20.0018 9.59462ZM14.108 14.7859C14.2193 14.2089 14.4991 13.6779 14.9122 13.2599C15.3252 12.842 15.8529 12.5558 16.4286 12.4378C17.0042 12.3197 17.6019 12.3749 18.1462 12.5965C18.6904 12.8181 19.1567 13.196 19.4862 13.6826C19.8157 14.1692 19.9935 14.7425 19.9971 15.3301C20.0008 15.9177 19.8301 16.4932 19.5067 16.9839C19.1833 17.4745 18.7217 17.8583 18.1803 18.0866C17.6388 18.3149 17.0419 18.3776 16.4648 18.2667C16.0814 18.193 15.7164 18.0445 15.3904 17.8296C15.0645 17.6148 14.7841 17.3378 14.5652 17.0146C14.3463 16.6914 14.1933 16.3281 14.1149 15.9457C14.0364 15.5633 14.0341 15.1692 14.108 14.7859ZM18.4317 23.7776C18.3197 24.3543 18.0391 24.8849 17.6255 25.3023C17.212 25.7197 16.684 26.0051 16.1082 26.1224C15.5325 26.2398 14.9349 26.1838 14.391 25.9616C13.8471 25.7393 13.3812 25.3609 13.0524 24.8739C12.7235 24.387 12.5464 23.8136 12.5434 23.226C12.5404 22.6384 12.7116 22.0632 13.0355 21.5729C13.3594 21.0827 13.8213 20.6995 14.3629 20.4717C14.9046 20.2439 15.5015 20.1818 16.0784 20.2933C16.4618 20.3674 16.8269 20.5163 17.1527 20.7315C17.4785 20.9467 17.7587 21.2241 17.9772 21.5477C18.1958 21.8713 18.3484 22.2348 18.4264 22.6174C18.5044 23 18.5062 23.3942 18.4317 23.7776ZM19.6927 21.3716C19.4366 21.322 19.2009 21.1978 19.0153 21.0144C18.8297 20.8311 18.7026 20.5969 18.65 20.3414C18.5974 20.0859 18.6216 19.8206 18.7196 19.5788C18.8176 19.3371 18.985 19.1298 19.2007 18.983C19.4164 18.8363 19.6707 18.7567 19.9315 18.7544C20.1924 18.752 20.4481 18.8269 20.6664 18.9697C20.8847 19.1125 21.0558 19.3167 21.1582 19.5567C21.2606 19.7966 21.2896 20.0615 21.2416 20.3179C21.2096 20.489 21.144 20.6521 21.0487 20.7978C20.9534 20.9436 20.8303 21.069 20.6863 21.1669C20.5424 21.2648 20.3805 21.3333 20.2099 21.3685C20.0394 21.4036 19.8636 21.4047 19.6927 21.3716ZM25.892 25.2106C25.7807 25.7876 25.5009 26.3186 25.0878 26.7366C24.6748 27.1545 24.1471 27.4407 23.5714 27.5587C22.9958 27.6768 22.3981 27.6216 21.8538 27.4C21.3096 27.1784 20.8433 26.8005 20.5138 26.3139C20.1843 25.8273 20.0065 25.254 20.0029 24.6664C19.9992 24.0788 20.1699 23.5033 20.4933 23.0126C20.8167 22.522 21.2783 22.1382 21.8197 21.9099C22.3611 21.6816 22.9581 21.6189 23.5352 21.7298C23.9186 21.8035 24.2836 21.952 24.6096 22.1669C24.9355 22.3817 25.2159 22.6587 25.4348 22.9819C25.6537 23.3051 25.8067 23.6684 25.8851 24.0508C25.9636 24.4332 25.9659 24.8273 25.892 25.2106ZM23.9251 19.7032C23.3481 19.5919 22.817 19.3121 22.3991 18.899C21.9811 18.486 21.695 17.9583 21.5769 17.3826C21.4588 16.807 21.5141 16.2093 21.7357 15.665C21.9572 15.1208 22.3352 14.6545 22.8218 14.325C23.3084 13.9956 23.8817 13.8178 24.4693 13.8141C25.0569 13.8105 25.6324 13.9811 26.1231 14.3045C26.6137 14.6279 26.9974 15.0895 27.2258 15.6309C27.4541 16.1724 27.5167 16.7694 27.4058 17.3464C27.3325 17.7301 27.1843 18.0955 26.9697 18.4219C26.755 18.7482 26.4781 19.029 26.1548 19.2483C25.8315 19.4675 25.4682 19.6208 25.0856 19.6995C24.703 19.7781 24.3086 19.7806 23.9251 19.7067V19.7032Z" fill="black"/>
</g>
<defs>
<clipPath id="clip0">
<rect width="24" height="24" fill="white" transform="translate(8 8)"/>
</clipPath>
</defs>
</svg>
